<svg id="Group_4660" data-name="Group 4660" xmlns="http://www.w3.org/2000/svg" xmlns:xlink="http://www.w3.org/1999/xlink" width="18.826" height="21.316" viewBox="0 0 18.826 21.316">
  <defs>
    <clipPath id="clip-path">
      <rect id="Rectangle_2955" data-name="Rectangle 2955" width="18.826" height="21.316" fill="#5f7292"/>
    </clipPath>
  </defs>
  <g id="Group_4659" data-name="Group 4659" transform="translate(0 0)" clip-path="url(#clip-path)">
    <path id="Path_6266" data-name="Path 6266" d="M19.51,4.633h.384A1.106,1.106,0,0,0,21,3.528V1.106A1.106,1.106,0,0,0,19.894,0H19.51A1.106,1.106,0,0,0,18.4,1.106V3.528A1.106,1.106,0,0,0,19.51,4.633" transform="translate(-14.452 0)" fill="#5f7292"/>
    <path id="Path_6267" data-name="Path 6267" d="M58.638,4.633h.384a1.106,1.106,0,0,0,1.106-1.106V1.106A1.106,1.106,0,0,0,59.022,0h-.384a1.106,1.106,0,0,0-1.106,1.106V3.528a1.106,1.106,0,0,0,1.106,1.106" transform="translate(-45.177 0)" fill="#5f7292"/>
    <path id="Path_6268" data-name="Path 6268" d="M15.754,11.6h-.482v1.037a1.43,1.43,0,0,1-1.428,1.428H13.46a1.43,1.43,0,0,1-1.428-1.428V11.6H6.869v1.037a1.43,1.43,0,0,1-1.428,1.428H5.057A1.429,1.429,0,0,1,3.63,12.633V11.6H3.07A3.071,3.071,0,0,0,0,14.667V27.351A3.071,3.071,0,0,0,3.07,30.422H15.754a3.071,3.071,0,0,0,3.071-3.071V14.667A3.071,3.071,0,0,0,15.754,11.6M18.4,27.351a2.644,2.644,0,0,1-2.641,2.641H3.07A2.644,2.644,0,0,1,.429,27.351V16.7H18.4Z" transform="translate(0.001 -9.106)" fill="#5f7292"/>
    <path id="Path_6269" data-name="Path 6269" d="M12.109,45.6H15.06a.028.028,0,0,1,.027.027V48.58a.215.215,0,1,0,.43,0V45.628a.457.457,0,0,0-.457-.457H12.109a.215.215,0,1,0,0,.43" transform="translate(-9.34 -35.47)" fill="#5f7292"/>
    <path id="Path_6270" data-name="Path 6270" d="M36.5,45.6h2.952a.027.027,0,0,1,.027.027V48.58a.215.215,0,1,0,.43,0V45.628a.457.457,0,0,0-.457-.457H36.5a.215.215,0,0,0,0,.43" transform="translate(-28.494 -35.47)" fill="#5f7292"/>
    <path id="Path_6271" data-name="Path 6271" d="M12.109,70.111H15.06a.028.028,0,0,1,.027.027V73.09a.215.215,0,1,0,.43,0V70.138a.457.457,0,0,0-.457-.457H12.109a.215.215,0,1,0,0,.43" transform="translate(-9.34 -54.717)" fill="#5f7292"/>
    <path id="Path_6272" data-name="Path 6272" d="M36.5,70.111h2.952a.028.028,0,0,1,.027.027V73.09a.215.215,0,1,0,.43,0V70.138a.457.457,0,0,0-.457-.457H36.5a.215.215,0,1,0,0,.43" transform="translate(-28.494 -54.717)" fill="#5f7292"/>
    <path id="Path_6273" data-name="Path 6273" d="M61.013,45.6h2.952a.028.028,0,0,1,.027.027V48.58a.215.215,0,1,0,.43,0V45.628a.457.457,0,0,0-.457-.457H61.013a.215.215,0,1,0,0,.43" transform="translate(-47.741 -35.47)" fill="#5f7292"/>
  </g>
</svg>
