<svg xmlns="http://www.w3.org/2000/svg" xmlns:xlink="http://www.w3.org/1999/xlink" width="44.782" height="47.442" viewBox="0 0 44.782 47.442">
  <defs>
    <clipPath id="clip-path">
      <rect id="Rectangle_4586" data-name="Rectangle 4586" width="44.782" height="47.442" transform="translate(0 0)" fill="#fff"/>
    </clipPath>
  </defs>
  <g id="Group_5112" data-name="Group 5112" transform="translate(0 0.003)" opacity="0.8">
    <g id="Group_5111" data-name="Group 5111" transform="translate(0 -0.003)" clip-path="url(#clip-path)">
      <path id="Path_6893" data-name="Path 6893" d="M40.643,20.434a1.786,1.786,0,0,0,3.466-.842,8.473,8.473,0,0,0-.478-1.631,1.749,1.749,0,0,0-1.927-1.02,1.868,1.868,0,0,0-1.482,1.954c.1.361.234.958.421,1.54M37.2,13.342a10.572,10.572,0,0,0,.992,1.382,1.777,1.777,0,0,0,2.869-2.061,9.557,9.557,0,0,0-.993-1.381,1.73,1.73,0,0,0-1.982-.437,1.91,1.91,0,0,0-1.153,1.68,3.565,3.565,0,0,0,.267.817M35.846,7.126a11.049,11.049,0,0,0-1.4-.964,1.78,1.78,0,0,0-1.977,2.933,9.531,9.531,0,0,0,1.319.926,1.787,1.787,0,0,0,2.669-1.557,1.628,1.628,0,0,0-.607-1.338m8.935,18.552a1.794,1.794,0,0,0-1.657-1.826A1.768,1.768,0,0,0,41.23,25.42a10.691,10.691,0,0,0-.089,1.517,1.754,1.754,0,0,0,1.671,1.755,1.775,1.775,0,0,0,1.874-1.542c.049-.334.064-.673.095-1,0-.16,0-.314,0-.467m-4.207,9.7a1.724,1.724,0,0,0,2-.748A9.266,9.266,0,0,0,43.3,33a1.776,1.776,0,0,0-2.953-1.764,5.11,5.11,0,0,0-1.04,2.251,1.845,1.845,0,0,0,1.266,1.9m-4.237,5.656a1.614,1.614,0,0,0,1.86-.191,8.075,8.075,0,0,0,1.274-1.388,1.612,1.612,0,0,0,.034-1.869,1.7,1.7,0,0,0-1.618-.876,3.441,3.441,0,0,0-2.559,2.85,1.687,1.687,0,0,0,1.008,1.475M13.89,31.992c.423-1.157.8-2.291,1.256-3.392a1.527,1.527,0,0,1,1.189-.789c1.5-.331,3-.69,4.505-1a1.125,1.125,0,0,0,.985-.889,5.935,5.935,0,0,1,.338-1,1.287,1.287,0,0,0-.274-1.548c-1.039-1.178-2.01-2.415-3.04-3.6a1.307,1.307,0,0,1-.284-1.435c.427-1.2.815-2.413,1.233-3.66l11.315,3.847c-.04.149-.064.266-.1.378-.335.991-.681,1.977-1,2.971a1.863,1.863,0,0,1-1.5,1.335c-1.5.322-3,.679-4.505,1a1.04,1.04,0,0,0-.9.8c-.13.474-.307.935-.473,1.4a.921.921,0,0,0,.183.983c1.053,1.247,2.072,2.525,3.151,3.749a1.487,1.487,0,0,1,.329,1.679c-.372.991-.686,2-1.038,3.045L13.89,31.992m13.9.924a2.355,2.355,0,0,0-.456-2.415c-.99-1.159-1.953-2.342-2.926-3.516a.9.9,0,0,1,.5-1.463c1.291-.287,2.582-.577,3.874-.857a3.18,3.18,0,0,0,2.33-1.643,8.456,8.456,0,0,0,.428-1.069c.337-.968.663-1.94.992-2.9.882.2.882.2,1.17-.644.115-.335.23-.669.343-1,.21-.624.154-.742-.458-.95L24.327,13.3q-2.643-.9-5.285-1.8c-.318-.108-.617-.156-.76.246-.2.565-.4,1.132-.582,1.7a.442.442,0,0,0,.317.614c.113.039.222.091.359.149-.062.206-.113.4-.175.584-.368,1.109-.743,2.216-1.106,3.327a2.287,2.287,0,0,0,.432,2.333c1.013,1.2,2.01,2.415,3.012,3.625a.91.91,0,0,1-.458,1.371c-1.32.3-2.639.607-3.963.885a3.255,3.255,0,0,0-2.611,2.273c-.273.817-.553,1.631-.833,2.445-.053.153-.119.3-.177.449-.813-.254-.857-.231-1.11.516q-.214.633-.433,1.265a.5.5,0,0,0,.365.742c.762.242,1.514.515,2.271.773l12.36,4.2c.574.195.7.133.89-.424.126-.363.248-.728.371-1.091.279-.822.278-.822-.539-1.187.379-1.144.755-2.263,1.119-3.387M22.855.084q2.064,1.7,4.128,3.391c.776.637.78,1.153.015,1.8l-3.454,2.93a3.287,3.287,0,0,1-.359.288.854.854,0,0,1-.615.162c-.131-.044-.235-.346-.245-.539-.031-.613-.011-1.228-.011-1.937-.886.076-1.731.092-2.556.227A18.534,18.534,0,0,0,5.324,17.189,17.714,17.714,0,0,0,3.776,27.455a18.35,18.35,0,0,0,7.568,12.736,18.249,18.249,0,0,0,12.565,3.552,18.9,18.9,0,0,0,7.472-2.2,2.956,2.956,0,0,1,1.393-.361,1.684,1.684,0,0,1,1.536,1.381,1.719,1.719,0,0,1-.9,1.951,33.6,33.6,0,0,1-4.006,1.76,21.891,21.891,0,0,1-15.62-.592A21.965,21.965,0,0,1,3.414,36.9,21.663,21.663,0,0,1,.153,27.614,21.831,21.831,0,0,1,2.578,14.608,22.1,22.1,0,0,1,15.606,3.666a21.044,21.044,0,0,1,5.756-1.02c.29-.011.579-.031.9-.049,0-.573-.025-1.111.01-1.645a3.279,3.279,0,0,1,.093-.868c.05-.133.363-.1.492,0" transform="translate(0 0.004)" fill="#fff"/>
    </g>
  </g>
</svg>
