<svg xmlns="http://www.w3.org/2000/svg" width="34.399" height="47.442" viewBox="0 0 34.399 47.442">
  <g id="Group_628" data-name="Group 628" opacity="0.8">
    <g id="Group" transform="translate(15.817 0)" style="isolation: isolate">
      <path id="Vector" d="M4.495,8.99A4.495,4.495,0,1,1,8.99,4.495,4.495,4.495,0,0,1,4.495,8.99Z" transform="translate(0.943 0.943)" fill="#fff"/>
      <path id="Vector_-_Outline" data-name="Vector - Outline" d="M4.938,10.376a5.438,5.438,0,1,1,5.438-5.438A5.444,5.444,0,0,1,4.938,10.376Zm0-8.99A3.552,3.552,0,1,0,8.49,4.938,3.556,3.556,0,0,0,4.938,1.386Z" transform="translate(0.5 0.5)" fill="#fff"/>
    </g>
    <g id="Group-2" data-name="Group" transform="translate(0 11.372)" style="isolation: isolate">
      <path id="Vector-2" data-name="Vector" d="M24.506,13.478l6.012,2,1.423-4.261-6.012-2L22.191,3.609a4.531,4.531,0,0,0-1.728-1.526L17.24.472a4.47,4.47,0,0,0-3.1-.335L6.967,1.928A4.5,4.5,0,0,0,4.032,4.279L0,12.345l4.021,2.011L8.053,6.29l5-1.25L8.994,23.8.737,29.477l2.546,3.7L11.543,27.5a4.469,4.469,0,0,0,1.843-2.753l1.162-5.367L20.2,23.623l2.079,10.394,4.407-.883-2.079-10.4a4.5,4.5,0,0,0-1.713-2.71L18.02,16.366l1.454-8.731,2.715,4.075A4.506,4.506,0,0,0,24.506,13.478Z" transform="translate(1.265 0.943)" fill="#fff"/>
      <path id="Vector_-_Outline-2" data-name="Vector - Outline" d="M15.836-.5a5.441,5.441,0,0,1,2.421.571l3.223,1.611a5.487,5.487,0,0,1,2.09,1.845l3.559,5.34,6.6,2.2-2.02,6.05-6.906-2.3A5.456,5.456,0,0,1,22,12.675l-1.392-2.089L19.639,16.4l4.421,3.315a5.431,5.431,0,0,1,2.071,3.279l2.264,11.325L22.138,35.57,19.945,24.6l-4.192-3.145-.851,3.93a5.405,5.405,0,0,1-2.23,3.33L3.635,34.936.02,29.678l8.726-6L12.4,6.767l-3.1.776-4.26,8.522L-.671,13.21,3.783,4.3A5.442,5.442,0,0,1,7.333,1.456L14.509-.335A5.411,5.411,0,0,1,15.836-.5ZM31.342,12.261l-5.424-1.809L22,4.575a3.593,3.593,0,0,0-1.367-1.207l-3.221-1.61a3.563,3.563,0,0,0-2.444-.264L7.79,3.286a3.556,3.556,0,0,0-2.32,1.858l-3.61,7.222,2.334,1.168L8,5.924,14.885,4.2l-4.454,20.6L2.643,30.163l1.478,2.15L11.6,27.166a3.527,3.527,0,0,0,1.455-2.174l1.474-6.806,7.121,5.342,1.965,9.823,2.558-.513-1.894-9.475a3.546,3.546,0,0,0-1.353-2.14l-5.338-4,1.94-11.65,4.038,6.06a3.561,3.561,0,0,0,1.831,1.4l5.118,1.707Z" transform="translate(0.671 0.5)" fill="#fff"/>
    </g>
  </g>
</svg>
