<svg xmlns="http://www.w3.org/2000/svg" xmlns:xlink="http://www.w3.org/1999/xlink" width="39.872" height="47.442" viewBox="0 0 39.872 47.442">
  <defs>
    <clipPath id="clip-path">
      <rect id="Rectangle_4580" data-name="Rectangle 4580" width="27.982" height="38.657" transform="translate(0 0)" fill="#1272a4"/>
    </clipPath>
  </defs>
  <g id="Group_5110" data-name="Group 5110" transform="translate(-881.527 -212.526)">
    <g id="Group_5115" data-name="Group 5115">
      <g id="Group_5109" data-name="Group 5109" transform="translate(881.527 212.646)">
        <g id="Group_5107" data-name="Group 5107" transform="translate(0 0)" clip-path="url(#clip-path)">
          <path id="Path_6892" data-name="Path 6892" d="M13.364,27.2c-.023.081-.041.134-.053.187-.226,1.032-.438,2.067-.679,3.1a4.241,4.241,0,0,1-1.769,2.594q-3.608,2.493-7.224,4.973c-.161.111-.162.11-.273-.05L.637,34.031c-.107-.155-.106-.156.048-.263q3.385-2.328,6.772-4.653a.521.521,0,0,0,.235-.348Q9.128,22.1,10.572,15.432c.013-.059.021-.119.035-.2a1.769,1.769,0,0,0-.181.024c-.717.178-1.434.36-2.152.534a.373.373,0,0,0-.27.219q-1.632,3.276-3.27,6.549a.477.477,0,0,1-.074.136.194.194,0,0,1-.126.04c-.034,0-.068-.03-.1-.047L.159,20.551c-.192-.1-.192-.1-.094-.293q1.748-3.5,3.5-6.993a4.394,4.394,0,0,1,2.974-2.4C8.453,10.377,10.376,9.9,12.3,9.42a4.4,4.4,0,0,1,3.162.354c.892.452,1.79.891,2.677,1.351a4.35,4.35,0,0,1,1.629,1.491q1.372,2.066,2.747,4.131a.549.549,0,0,0,.3.235q2.5.828,5,1.664c.188.063.188.063.126.248L26.424,23.45c-.064.191-.065.191-.261.125q-2.683-.894-5.367-1.789a4.485,4.485,0,0,1-2.383-1.818q-.484-.728-.971-1.454c-.031-.046-.064-.091-.12-.17-.021.088-.038.143-.048.2q-.318,1.9-.633,3.8c-.03.182-.053.366-.093.546a.227.227,0,0,0,.106.262q1.306.971,2.605,1.951c.393.3.8.582,1.167.906a4.4,4.4,0,0,1,1.413,2.534q.887,4.453,1.779,8.906c.042.21.042.21-.165.252l-4.682.939c-.209.042-.214.039-.254-.164q-.854-4.272-1.706-8.544a.473.473,0,0,0-.2-.311q-1.534-1.141-3.062-2.29c-.052-.039-.108-.073-.189-.127M21.727,4.442a4.435,4.435,0,1,0-4.438,4.431,4.459,4.459,0,0,0,4.438-4.431" transform="translate(0 -0.002)" fill="#1272a4"/>
        </g>
      </g>
      <g id="Group_628" data-name="Group 628" transform="translate(887 212.526)" opacity="0.8">
        <g id="Group" transform="translate(15.817 0)" style="isolation: isolate">
          <path id="Vector" d="M4.495,8.99A4.495,4.495,0,1,1,8.99,4.495,4.495,4.495,0,0,1,4.495,8.99Z" transform="translate(0.943 0.943)" fill="#fff"/>
          <path id="Vector_-_Outline" data-name="Vector - Outline" d="M4.938,10.376a5.438,5.438,0,1,1,5.438-5.438A5.444,5.444,0,0,1,4.938,10.376Zm0-8.99A3.552,3.552,0,1,0,8.49,4.938,3.556,3.556,0,0,0,4.938,1.386Z" transform="translate(0.5 0.5)" fill="#fff"/>
        </g>
        <g id="Group-2" data-name="Group" transform="translate(0 11.372)" style="isolation: isolate">
          <path id="Vector-2" data-name="Vector" d="M24.506,13.478l6.012,2,1.423-4.261-6.012-2L22.191,3.609a4.531,4.531,0,0,0-1.728-1.526L17.24.472a4.47,4.47,0,0,0-3.1-.335L6.967,1.928A4.5,4.5,0,0,0,4.032,4.279L0,12.345l4.021,2.011L8.053,6.29l5-1.25L8.994,23.8.737,29.477l2.546,3.7L11.543,27.5a4.469,4.469,0,0,0,1.843-2.753l1.162-5.367L20.2,23.623l2.079,10.394,4.407-.883-2.079-10.4a4.5,4.5,0,0,0-1.713-2.71L18.02,16.366l1.454-8.731,2.715,4.075A4.506,4.506,0,0,0,24.506,13.478Z" transform="translate(1.265 0.943)" fill="#fff"/>
          <path id="Vector_-_Outline-2" data-name="Vector - Outline" d="M15.836-.5a5.441,5.441,0,0,1,2.421.571l3.223,1.611a5.487,5.487,0,0,1,2.09,1.845l3.559,5.34,6.6,2.2-2.02,6.05-6.906-2.3A5.456,5.456,0,0,1,22,12.675l-1.392-2.089L19.639,16.4l4.421,3.315a5.431,5.431,0,0,1,2.071,3.279l2.264,11.325L22.138,35.57,19.945,24.6l-4.192-3.145-.851,3.93a5.405,5.405,0,0,1-2.23,3.33L3.635,34.936.02,29.678l8.726-6L12.4,6.767l-3.1.776-4.26,8.522L-.671,13.21,3.783,4.3A5.442,5.442,0,0,1,7.333,1.456L14.509-.335A5.411,5.411,0,0,1,15.836-.5ZM31.342,12.261l-5.424-1.809L22,4.575a3.593,3.593,0,0,0-1.367-1.207l-3.221-1.61a3.563,3.563,0,0,0-2.444-.264L7.79,3.286a3.556,3.556,0,0,0-2.32,1.858l-3.61,7.222,2.334,1.168L8,5.924,14.885,4.2l-4.454,20.6L2.643,30.163l1.478,2.15L11.6,27.166a3.527,3.527,0,0,0,1.455-2.174l1.474-6.806,7.121,5.342,1.965,9.823,2.558-.513-1.894-9.475a3.546,3.546,0,0,0-1.353-2.14l-5.338-4,1.94-11.65,4.038,6.06a3.561,3.561,0,0,0,1.831,1.4l5.118,1.707Z" transform="translate(0.671 0.5)" fill="#fff"/>
        </g>
      </g>
    </g>
  </g>
</svg>
