<svg xmlns="http://www.w3.org/2000/svg" width="18.24" height="25.156" viewBox="0 0 18.24 25.156">
  <g id="Group_628" data-name="Group 628" transform="translate(0.671 0.5)">
    <g id="Group" style="isolation: isolate">
      <path id="Vector" d="M12.994,7.146l3.188,1.063.754-2.259L13.749,4.887,11.767,1.914A2.4,2.4,0,0,0,10.85,1.1L9.141.25A2.37,2.37,0,0,0,7.5.073l-3.805.95A2.386,2.386,0,0,0,2.138,2.269L0,6.546,2.132,7.612,4.27,3.335l2.649-.663-2.15,9.946L.391,15.63l1.35,1.964,4.379-3.013a2.369,2.369,0,0,0,.977-1.46l.616-2.846,3,2.25,1.1,5.512,2.337-.468-1.1-5.514a2.383,2.383,0,0,0-.908-1.437L9.555,8.678l.771-4.63,1.44,2.161A2.389,2.389,0,0,0,12.994,7.146Z" transform="translate(0 6.03)" fill="#fff"/>
    </g>
    <g id="Group_5154" data-name="Group 5154">
      <g id="Group_5155" data-name="Group 5155">
        <g id="Group_5162" data-name="Group 5162">
          <g id="Group-2" data-name="Group" style="isolation: isolate">
            <path id="Vector-2" data-name="Vector" d="M2.383,4.767A2.383,2.383,0,1,1,4.767,2.383,2.383,2.383,0,0,1,2.383,4.767Z" transform="translate(8.216)" fill="#fff"/>
            <path id="Vector_-_Outline" data-name="Vector - Outline" d="M2.383,5.267A2.883,2.883,0,1,1,5.267,2.383,2.887,2.887,0,0,1,2.383,5.267ZM2.383.5A1.883,1.883,0,1,0,4.267,2.383,1.886,1.886,0,0,0,2.383.5Z" transform="translate(8.216)" fill="#fff"/>
          </g>
          <path id="Vector_-_Outline-2" data-name="Vector - Outline" d="M8.082-.5a2.885,2.885,0,0,1,1.284.3l1.709.854a2.909,2.909,0,0,1,1.108.978l1.887,2.831,3.5,1.167L16.5,8.842,12.836,7.621a2.893,2.893,0,0,1-1.487-1.135l-.738-1.108L10.1,8.46l2.344,1.758a2.879,2.879,0,0,1,1.1,1.738l1.2,6-3.317.665L10.26,12.811,8.038,11.144l-.451,2.084A2.866,2.866,0,0,1,6.4,14.993l-4.792,3.3L-.3,15.5l4.627-3.182L6.26,3.353l-1.646.412L2.356,8.283-.671,6.769,1.691,2.045A2.886,2.886,0,0,1,3.573.537l3.8-.95A2.869,2.869,0,0,1,8.082-.5ZM16.3,6.266l-2.876-.959L11.351,2.191a1.905,1.905,0,0,0-.725-.64L8.918.7a1.889,1.889,0,0,0-1.3-.14l-3.807.95a1.886,1.886,0,0,0-1.23.985L.671,6.322l1.238.619L3.925,2.906l3.652-.913L5.216,12.918l-4.13,2.841L1.87,16.9l3.967-2.729a1.87,1.87,0,0,0,.772-1.152L7.39,9.408l3.776,2.832,1.042,5.208,1.356-.272-1-5.024a1.88,1.88,0,0,0-.717-1.135L9.012,8.9l1.029-6.177,2.141,3.213a1.888,1.888,0,0,0,.971.741l2.714.9Z" transform="translate(0 6.03)" fill="#fff"/>
        </g>
      </g>
    </g>
  </g>
</svg>
